<?xml version="1.0" encoding="utf-8"?>
<!-- Generator: Adobe Illustrator 27.5.0, SVG Export Plug-In . SVG Version: 6.00 Build 0)  -->
<svg version="1.1" xmlns="http://www.w3.org/2000/svg" xmlns:xlink="http://www.w3.org/1999/xlink" x="0px" y="0px"
	 viewBox="0 0 2500 2500" style="enable-background:new 0 0 2500 2500;" xml:space="preserve">
<g id="Background">
	<rect style="fill:#FFFFFF;" width="2500" height="2500"/>
</g>
<g id="Illustration">
	<g>
		<path style="fill:#F9EFE4;" d="M1944.823,1904.643c-47.633,49.099-90.254,77.961-122.886,99.749
			c-318.252,212.5-682.049,151.252-794.526,130.318c-181.468-33.775-334.652-57.602-466.264-176.508
			c-299.063-270.191-284.517-833.831-55.996-1182.981c27.096-41.399,255.27-379.625,619.854-427.283
			c8.917-1.166,15.571-1.83,21.398-2.446c56.4-5.972,405.902-37.488,690.886,201.271c40.794,34.177,106.443,95.824,167.322,189.846
			C2227.21,1080.394,2227.915,1612.842,1944.823,1904.643z"/>
		<g>
			<g>
				
					<linearGradient id="SVGID_1_" gradientUnits="userSpaceOnUse" x1="30.3919" y1="1049.0455" x2="317.9768" y2="2887.5398" gradientTransform="matrix(-0.6533 -0.7571 -0.7571 0.6533 3398.832 -55.203)">
					<stop  offset="0" style="stop-color:#799B91"/>
					<stop  offset="1" style="stop-color:#3E6764"/>
				</linearGradient>
				<path style="fill:url(#SVGID_1_);" d="M1425.745,1478.165c-9.881-3.628-28.179-20.232-31.165-26.527
					c-19.868-41.891-62.16-117.908-48.512-164.982c2.331-8.04,40.467-7.333,47.269-13.653c24.423-5.451,33.234-5.827,53.907-22.415
					c61.032-48.973-21.723-185.757,113.171-196.591c98.808-7.936,169.503,41.54,192.106-103.919
					c22.603-145.459,195.432-380.62,323.958-246.381c73.762,77.04-41.995,178.809-17.744,278.776
					c23.045,94.994-29.1,157.047-131.412,187.677c-102.312,30.63-62.817,81.012-54.888,168.113
					c9.525,104.627-144.284,87.848-214.633,74.044C1601.153,1401.191,1449.402,1411.105,1425.745,1478.165z"/>
				<g>
					<defs>
						<path id="SVGID_00000064319591666107482200000006018785390745123503_" d="M1324.618,1266.174
							c6.065,72.102,9.265,145.721,14.98,218.364c39.307,12.634,85.852,26.538,106.258-20.648
							c28.371-65.603,153.459-64.146,209.925-52.355c69.887,14.593,223.878,32.097,214.991-72.508
							c-7.399-87.083-46.487-137.807,56.021-167.726c102.509-29.919,155.056-91.629,132.673-186.784
							c-23.554-100.135,92.851-201.063,19.63-278.646c-127.585-135.184-302.105,99.022-325.584,244.134
							c-23.479,145.111-94.32,95.945-192.746,102.525c-134.373,8.982-54.726,149.749-113.923,194.75
							C1400.436,1282.558,1373.807,1267.892,1324.618,1266.174z"/>
					</defs>
					<clipPath id="SVGID_00000103967147841995096060000008635306978846359681_">
						<use xlink:href="#SVGID_00000064319591666107482200000006018785390745123503_"  style="overflow:visible;"/>
					</clipPath>
					<g style="opacity:0.8;clip-path:url(#SVGID_00000103967147841995096060000008635306978846359681_);">
						<path style="fill:#FFFFFF;" d="M1368.761,1370.932l-0.495-2.182c336.209-76.367,590.677-343.932,680.701-715.736l2.177,0.526
							c-42.666,176.209-125.609,334.962-239.865,459.098C1691.161,1243.143,1538.141,1332.459,1368.761,1370.932z"/>
						<path style="fill:#FFFFFF;" d="M1879.417,1382.137c-80.535-49.06-226.27-84.023-324.867-77.937l-0.137-2.234
							c98.985-6.109,245.303,28.998,326.169,78.259L1879.417,1382.137z"/>
						<path style="fill:#FFFFFF;" d="M1434.589,1355.186l-1.081-1.961c44.959-24.805,75.651-71.387,91.223-138.45
							c11.418-49.174,14.592-108.01,9.432-174.878l2.232-0.171c5.176,67.094,1.986,126.16-9.484,175.555
							C1511.191,1282.989,1480.129,1330.06,1434.589,1355.186z"/>
						<path style="fill:#FFFFFF;" d="M1826.811,1094.388l-1.181-1.902c82.341-51.115,184.133-46.102,255.027-32.897l-0.411,2.202
							C2009.742,1048.657,1908.542,1043.651,1826.811,1094.388z"/>
						<path style="fill:#FFFFFF;" d="M1953.415,912.202l-2.137-0.667c32.524-104.225-6.596-211.947-32.808-266.882l2.021-0.965
							C1946.844,698.92,1986.166,807.247,1953.415,912.202z"/>
					</g>
				</g>
			</g>
		</g>
		<g>
			<g>
				<defs>
					<path id="SVGID_00000078035403609349643370000002582266620144345729_" d="M1492.621,1453.113
						c-49.997-11.361-99.854-23.88-149.528-37.551c-0.878,0.678-8.927-110.539,47.763-164.14
						c111.923-103.675,50.147-209.309,34.915-270.243c-25.255-86.217-1.083-186.751,89.685-160.528
						c88.597,23.393,116.583-160.569,112.129-304.307c-7.857-70.4,64.128-149.494,130.939-163.663
						c68.335-16.139,131.495,32.647,141.16,172.508c18.452,162.5-105.883,249.987-155.377,326.901
						c-48.686,75.497,45.403,146.937-39.726,210.572c-71.862,56.837-159.826,94.878-134.959,175.204
						C1595.408,1317.376,1582.917,1379.776,1492.621,1453.113z"/>
				</defs>
				<clipPath id="SVGID_00000061470104076702420000000003875293592430750392_">
					<use xlink:href="#SVGID_00000078035403609349643370000002582266620144345729_"  style="overflow:visible;"/>
				</clipPath>
				
					<linearGradient id="SVGID_00000039118920402518233850000003691336429717514659_" gradientUnits="userSpaceOnUse" x1="1394.7494" y1="160.4768" x2="1863.0094" y2="1801.1206">
					<stop  offset="0" style="stop-color:#799B91"/>
					<stop  offset="1" style="stop-color:#3E6764"/>
				</linearGradient>
				
					<path style="clip-path:url(#SVGID_00000061470104076702420000000003875293592430750392_);fill:url(#SVGID_00000039118920402518233850000003691336429717514659_);" d="
					M1492.621,1453.113c-49.997-11.361-99.854-23.88-149.528-37.551c-0.878,0.678-8.927-110.539,47.763-164.14
					c111.923-103.675,50.147-209.309,34.915-270.243c-24.941-86.13-1.377-175.475,83.908-170.207
					c94.735,3.994,123.995-151.051,117.906-294.627c-7.857-70.4,64.128-149.494,130.939-163.663
					c68.335-16.139,131.495,32.647,141.16,172.508c18.452,162.5-105.883,249.987-155.377,326.901
					c-48.686,75.497,45.403,146.937-39.726,210.572c-71.862,56.837-159.826,94.878-134.959,175.204
					C1595.408,1317.376,1582.917,1379.776,1492.621,1453.113z"/>
				<g style="opacity:0.8;clip-path:url(#SVGID_00000061470104076702420000000003875293592430750392_);">
					<path style="fill:#FFFFFF;" d="M1421.935,1454.172c0.061-0.978,66.323-228.562,167.174-447.301
						c14.328-35.536,29.685-71.328,44.534-105.941c82.703-192.759,160.819-374.829,108.393-588.094l2.966-0.73
						c52.669,214.26-25.642,396.785-108.552,590.029c-14.844,34.598-30.193,70.374-44.538,105.948
						c-101.395,219.924-166.68,444.988-166.941,446.399L1421.935,1454.172z"/>
					<path style="fill:#FFFFFF;" d="M1709.182,722.216l-2.104-2.213c61.224-58.254,136.149-141.991,176.401-186.976
						c32.578-36.408,32.707-36.385,34.239-36.016l-0.351,1.485l0.607,1.371c-1.703,1.091-15.171,16.142-32.22,35.196
						C1845.474,580.08,1770.497,663.876,1709.182,722.216z"/>
					<path style="fill:#FFFFFF;" d="M1732.051,637.301c-6.064-72.336-31.771-121.663-52.268-150.304
						c-22.328-31.199-44.471-46.468-47.287-47.201l0.299-1.147l-0.943-1.674c0.798-0.45,1.647-0.164,2.938,0.519
						c18.475,9.791,89.641,72.353,100.304,199.551L1732.051,637.301z"/>
					<path style="fill:#FFFFFF;" d="M1531.083,1150.729l-2.996-0.595c28.098-141.584-58.611-282.445-97.196-336.436
						c-2.073-2.9-2.74-3.841-2.972-4.325l2.753-1.322l-1.377,0.661l1.371-0.67c0.176,0.338,1.351,1.979,2.708,3.88
						c27.827,38.937,50.658,79.37,67.859,120.173C1534.275,1010.481,1544.318,1084.039,1531.083,1150.729z"/>
					<path style="fill:#FFFFFF;" d="M1559.242,1082.369l-2.465-1.803c68.134-93.121,196.172-90.301,198.227-89.911
						c0.008,0.001,0.015,0.003,0.019,0.005l1.022,1.512l-1.157,1.413l-0.371-1.467l-0.221,1.49
						C1753.088,993.483,1626.695,990.177,1559.242,1082.369z M1754.141,990.625l0.373,1.477L1754.141,990.625z"/>
					<path style="fill:#FFFFFF;" d="M1433.308,1417.032c3.316-28.914-3.229-79.167-53.229-154.37
						c-2.838-4.267-2.838-4.267-2.663-5.044l2.98,0.67l-1.49-0.335l1.422-0.522c0.156,0.323,1.147,1.815,2.294,3.541
						c50.513,75.972,57.096,126.988,53.723,156.408L1433.308,1417.032z"/>
					<path style="fill:#FFFFFF;" d="M1453.405,1363.714l-2.858-1.075c19.005-50.568,94.125-82.804,137.212-97.518
						c1.366-0.467,2.246-0.764,2.562-0.897l1.181,2.816c-0.339,0.143-1.285,0.468-2.757,0.971
						C1546.169,1282.552,1471.97,1314.32,1453.405,1363.714z"/>
				</g>
			</g>
		</g>
		<g>
			
				<linearGradient id="SVGID_00000059303080590939635290000015476788782796748952_" gradientUnits="userSpaceOnUse" x1="1910.6556" y1="1771.7892" x2="60.6353" y2="699.2618">
				<stop  offset="0" style="stop-color:#D3C5CB"/>
				<stop  offset="1" style="stop-color:#ADA0A6"/>
			</linearGradient>
			<path style="fill:url(#SVGID_00000059303080590939635290000015476788782796748952_);" d="M2138.628,1066.303v804.446
				c0,26.708-22.593,48.003-50.38,47.568l-1382.059-13.378c-23.931-0.403-43.276-20.735-43.276-45.416v-743.389L2138.628,1066.303z"
				/>
			
				<linearGradient id="SVGID_00000104684851907577435240000011325142529751030196_" gradientUnits="userSpaceOnUse" x1="1899.8352" y1="1050.353" x2="3375.5513" y2="1050.353">
				<stop  offset="0" style="stop-color:#5D535A"/>
				<stop  offset="1" style="stop-color:#464143"/>
			</linearGradient>
			<path style="fill:url(#SVGID_00000104684851907577435240000011325142529751030196_);" d="M706.188,1019.954L2080.576,958.1
				c13.422-0.568,33.353,12.174,42.402,20.075c9.64,8.416,15.651,20.602,15.651,34.364v82.43l-17.702-8.992l-1458.014,56.648
				v-76.173C662.912,1041.77,682.257,1020.955,706.188,1019.954z"/>
			<path style="fill:#FFFFFF;" d="M2120.926,1085.976v774.185c0,26.653-22.501,47.933-50.174,47.532l-1376.871-11.643
				c-23.849-0.372-43.129-20.646-43.129-45.285v-742.122L2120.926,1085.976z"/>
			
				<linearGradient id="SVGID_00000016042833531530980240000000761965255171183015_" gradientUnits="userSpaceOnUse" x1="1270.9537" y1="310.0199" x2="1423.9905" y2="1319.2357">
				<stop  offset="0" style="stop-color:#96888E"/>
				<stop  offset="1" style="stop-color:#706369"/>
			</linearGradient>
			<path style="fill:url(#SVGID_00000016042833531530980240000000761965255171183015_);" d="M693.881,1012.584l1376.871-54.997
				c27.673-1.174,50.174,19.477,50.174,46.129v82.26l-1470.174,49.112v-76.044C650.752,1034.407,670.031,1013.607,693.881,1012.584z
				"/>
			<g>
				<g>
					<g>
						
							<linearGradient id="SVGID_00000119839732905908458710000009861026493047088050_" gradientUnits="userSpaceOnUse" x1="1722.188" y1="1322.6399" x2="1989.1488" y2="1322.6399">
							<stop  offset="0" style="stop-color:#F6AF9A"/>
							<stop  offset="0.9964" style="stop-color:#F89F8A"/>
						</linearGradient>
						<path style="fill:url(#SVGID_00000119839732905908458710000009861026493047088050_);" d="M1722.188,1449.104l11.367-252.929
							c117.158,6.068,224.625,86.069,255.594,205.438L1722.188,1449.104z"/>
					</g>
					<g>
						
							<linearGradient id="SVGID_00000140698934911709622780000001737788203658068368_" gradientUnits="userSpaceOnUse" x1="1629.4227" y1="1063.8857" x2="2178.9971" y2="2130.9409">
							<stop  offset="0" style="stop-color:#D3C5CB"/>
							<stop  offset="1" style="stop-color:#ADA0A6"/>
						</linearGradient>
						<path style="fill:url(#SVGID_00000140698934911709622780000001737788203658068368_);" d="M1921.613,1431.769
							c9.949,57.218-6.308,112.541-40.711,154.112l-147.901-121.454L1921.613,1431.769z"/>
						
							<linearGradient id="SVGID_00000165930481032234236650000006420782648099934884_" gradientUnits="userSpaceOnUse" x1="1539.2018" y1="1128.6938" x2="2065.5835" y2="2150.7185">
							<stop  offset="0" style="stop-color:#D3C5CB"/>
							<stop  offset="1" style="stop-color:#ADA0A6"/>
						</linearGradient>
						<path style="fill:url(#SVGID_00000165930481032234236650000006420782648099934884_);" d="M1704.75,1444.217
							c-50.786-30.229-110.724-65.99-157.393-93.976c25.667-39.989,66.728-70.942,118.201-83.564
							c15.839-3.884,31.793-5.82,47.594-5.951L1704.75,1444.217z"/>
						
							<linearGradient id="SVGID_00000127737085259377713450000001478548764138189956_" gradientUnits="userSpaceOnUse" x1="1451.8573" y1="1176.351" x2="1970.6404" y2="2183.6221">
							<stop  offset="0" style="stop-color:#D3C5CB"/>
							<stop  offset="1" style="stop-color:#ADA0A6"/>
						</linearGradient>
						<path style="fill:url(#SVGID_00000127737085259377713450000001478548764138189956_);" d="M1699.68,1460.774l-120.646,135.769
							c-27.032-26.305-47.096-59.986-56.301-98.468c-11.323-47.335-4.366-94.298,16.407-133.735
							c12.786,7.714,27.076,16.321,42.829,25.796C1630.312,1419.212,1679.822,1448.88,1699.68,1460.774z"/>
						
							<linearGradient id="SVGID_00000001660008420472066890000001117542194293813937_" gradientUnits="userSpaceOnUse" x1="1456.2811" y1="1166.4713" x2="1988.7566" y2="2200.3274">
							<stop  offset="0" style="stop-color:#D3C5CB"/>
							<stop  offset="1" style="stop-color:#ADA0A6"/>
						</linearGradient>
						<path style="fill:url(#SVGID_00000001660008420472066890000001117542194293813937_);" d="M1708.321,1477.295l40.6,178.376
							c-58.415,6.217-114.876-12.707-157.246-47.779L1708.321,1477.295z"/>
						
							<linearGradient id="SVGID_00000115486101892283256770000001111834820759629731_" gradientUnits="userSpaceOnUse" x1="1552.0909" y1="1110.2677" x2="2093.103" y2="2160.6982">
							<stop  offset="0" style="stop-color:#D3C5CB"/>
							<stop  offset="1" style="stop-color:#ADA0A6"/>
						</linearGradient>
						<path style="fill:url(#SVGID_00000115486101892283256770000001111834820759629731_);" d="M1727.001,1481.43l142.205,117.343
							c-26.948,27.124-62.288,46.525-103.049,54.336L1727.001,1481.43z"/>
					</g>
				</g>
				<polygon style="fill:#F9EFE4;" points="759.244,1351.428 1349.608,1338.452 1349.608,1262.064 759.244,1276.869 				"/>
				<polygon style="fill:#F9EFE4;" points="759.244,1486.344 1349.608,1476.678 1349.608,1400.29 759.244,1411.785 				"/>
				<polygon style="fill:#F9EFE4;" points="763.031,1617.278 1354.039,1610.594 1354.039,1534.162 763.031,1542.681 				"/>
				<polygon style="fill:#F9EFE4;" points="763.031,1752.265 1354.039,1748.898 1354.039,1672.467 763.031,1677.667 				"/>
			</g>
			<path style="fill:#FFFFFF;" d="M2006.089,1024.255c0,11.768,9.886,20.939,22.098,20.483
				c12.229-0.456,22.156-10.392,22.156-22.191c0-11.8-9.927-20.969-22.156-20.481
				C2015.975,1002.552,2006.089,1012.486,2006.089,1024.255z"/>
		</g>
		<g>
			<g>
				<g>
					
						<linearGradient id="SVGID_00000069388355488634162470000012467159655286108545_" gradientUnits="userSpaceOnUse" x1="786.7736" y1="612.1534" x2="1078.1697" y2="612.1534" gradientTransform="matrix(1 0 0 1 85.7931 0)">
						<stop  offset="0" style="stop-color:#EF9F8E"/>
						<stop  offset="1" style="stop-color:#E68273"/>
					</linearGradient>
					<polygon style="fill:url(#SVGID_00000069388355488634162470000012467159655286108545_);" points="872.567,777.999 
						1030.782,611.167 874.899,452.816 909.532,446.308 1163.963,607.571 1040.472,767.892 1005.84,774.4 					"/>
				</g>
				
					<linearGradient id="SVGID_00000163765483642715862700000003730739594141080970_" gradientUnits="userSpaceOnUse" x1="460.5491" y1="741.1086" x2="581.0732" y2="911.2604">
					<stop  offset="0" style="stop-color:#EF9F8E"/>
					<stop  offset="1" style="stop-color:#E68273"/>
				</linearGradient>
				<path style="fill:url(#SVGID_00000163765483642715862700000003730739594141080970_);" d="M1126.738,2039.986v-0.623
					c-165.075,12.385-330.099-38.839-461.126-150.585c-280.072-238.859-312.651-675.934-72.628-974.316
					c119.064-148.01,285.246-239.268,467.93-256.96c25.521-2.472,44.969-25.859,43.438-52.236
					c-1.532-26.379-23.469-45.759-48.983-43.284C847.403,582.12,658.228,686.009,522.683,854.504
					c-273.245,339.68-236.155,837.251,82.68,1109.172c39.553,33.731,81.802,62.605,126.076,86.587
					c217.402,117.758,483.078,117.129,711.658-9.723c10.03-5.565,17.428-14.305,21.607-24.325L1126.738,2039.986z"/>
			</g>
			<g>
				<g>
					
						<linearGradient id="SVGID_00000114043120538065218940000006000408048444254628_" gradientUnits="userSpaceOnUse" x1="821.406" y1="607.1" x2="1112.802" y2="607.1" gradientTransform="matrix(1 0 0 1 85.7931 0)">
						<stop  offset="0" style="stop-color:#F6AF9A"/>
						<stop  offset="0.9964" style="stop-color:#F89F8A"/>
					</linearGradient>
					<polygon style="fill:url(#SVGID_00000114043120538065218940000006000408048444254628_);" points="907.199,771.491 
						1065.415,604.658 909.532,446.308 1042.805,442.709 1198.595,601.062 1040.472,767.892 					"/>
				</g>
				
					<linearGradient id="SVGID_00000022555876927887838870000004472189369058156984_" gradientUnits="userSpaceOnUse" x1="288.5643" y1="1342.9612" x2="1413.5435" y2="1342.9612" gradientTransform="matrix(1 0 0 1 85.7931 0)">
					<stop  offset="0" style="stop-color:#F6AF9A"/>
					<stop  offset="0.9964" style="stop-color:#F89F8A"/>
				</linearGradient>
				<path style="fill:url(#SVGID_00000022555876927887838870000004472189369058156984_);" d="M1161.37,2033.478v-0.623
					c-165.075,12.385-330.099-38.839-461.126-150.585c-280.071-238.859-312.651-675.934-72.628-974.316
					c119.064-148.01,285.246-239.267,467.93-256.96c25.521-2.472,44.969-25.859,43.438-52.236
					c-1.532-26.379-23.469-45.759-48.983-43.284C882.035,575.611,692.86,679.5,557.315,847.995
					c-273.245,339.68-236.155,837.251,82.68,1109.172c39.553,33.731,81.802,62.605,126.076,86.587
					c217.402,117.758,483.078,117.129,711.658-9.723c10.03-5.565,17.428-14.305,21.607-24.325L1161.37,2033.478z"/>
			</g>
		</g>
		<g>
			
				<linearGradient id="SVGID_00000178195939927730641690000014650979964982517410_" gradientUnits="userSpaceOnUse" x1="2419.8274" y1="-59.2626" x2="265.8345" y2="1955.9852">
				<stop  offset="0" style="stop-color:#86A1C3"/>
				<stop  offset="0.9964" style="stop-color:#415B7E"/>
			</linearGradient>
			<path style="fill:url(#SVGID_00000178195939927730641690000014650979964982517410_);" d="M1334.705,1401.527
				c34.457,7.558,69.024-16.561,77.207-53.87c8.184-37.309-13.114-73.682-47.571-81.24c-1.786-0.391-3.57-0.647-5.352-0.872
				c0.924-19.709,0.418-39.2-1.494-58.333c1.744-0.458,3.488-0.941,5.226-1.562c33.932-12.109,53.219-51.182,43.078-87.272
				c-10.141-36.091-45.869-55.531-79.801-43.423c-1.774,0.634-3.482,1.383-5.174,2.159c-8.294-17.037-17.822-33.309-28.504-48.68
				c1.355-1.35,2.695-2.728,3.965-4.219c24.315-28.531,23.154-72.09-2.594-97.29c-25.748-25.2-66.334-22.499-90.65,6.032
				c-1.245,1.463-2.38,2.987-3.491,4.524c-15.105-9.93-31.099-18.615-47.875-25.976c0.563-1.859,1.099-3.735,1.523-5.667
				c8.184-37.31,20.712-78.996-13.859-86.013c-79.973-16.234-102.735,21.334-110.919,58.643c-0.424,1.932-0.721,3.86-0.988,5.784
				c-18.317-0.336-36.477,0.857-54.352,3.552c-0.367-1.861-0.758-3.719-1.278-5.569c-10.141-36.089-4.47-58.514-39.513-50.145
				c-76.417,18.251-93.507,57.908-83.366,93.997c0.53,1.886,1.17,3.699,1.836,5.491c-16.135,9.488-31.6,20.278-46.263,32.28
				c-1.211-1.413-2.45-2.808-3.796-4.126c-25.747-25.2-66.333-22.499-90.649,6.034c-24.315,28.533-23.154,72.089,2.595,97.289
				c1.318,1.292,2.7,2.461,4.092,3.606c-9.745,16.577-18.362,34.066-25.773,52.353c-1.712-0.542-3.44-1.057-5.225-1.449
				c-34.457-7.558-69.024,16.56-77.208,53.87c-8.183,37.309,13.115,73.682,47.572,81.239c1.785,0.392,3.569,0.647,5.352,0.872
				c-0.923,19.709-0.418,39.2,1.495,58.333c-1.745,0.458-3.488,0.941-5.226,1.56c-33.932,12.111-53.218,51.183-43.078,87.274
				c10.141,36.091,45.87,55.529,79.802,43.42c1.773-0.632,3.483-1.38,5.174-2.157c8.293,17.038,17.822,33.31,28.504,48.681
				c-1.355,1.35-2.694,2.728-3.965,4.219c-24.315,28.531-23.154,72.089,2.595,97.29c25.748,25.2,88.934,23.616,113.249-4.914
				c1.246-1.463-20.22-4.104-19.108-5.641c15.105,9.93,31.099,18.615,47.875,25.976c-0.563,1.859-1.099,3.735-1.523,5.667
				c-8.184,37.309,13.114,73.682,47.571,81.24c34.456,7.558,69.023-16.561,77.208-53.87c0.424-1.933,0.721-3.861,0.989-5.785
				c18.317,0.337,36.477-0.856,54.351-3.552c0.367,1.861,0.76,3.72,1.278,5.57c10.142,36.089,45.87,55.529,79.802,43.42
				c33.932-12.109,53.219-51.184,43.078-87.272c-0.53-1.886-1.169-3.699-1.835-5.491c16.135-9.488,31.599-20.278,46.263-32.281
				c1.211,1.413,2.45,2.808,3.796,4.124c25.748,25.2,66.333,22.501,90.649-6.033c24.316-28.533,23.154-72.089-2.594-97.292
				c-1.319-1.289-2.7-2.458-4.092-3.604c9.745-16.577,18.362-34.066,25.772-52.353
				C1331.192,1400.62,1332.919,1401.136,1334.705,1401.527z M956.419,1504.823c-125.104-27.441-202.434-159.5-172.72-294.963
				c29.713-135.463,155.218-223.03,280.322-195.589c125.105,27.442,202.435,159.5,172.721,294.964
				C1207.028,1444.697,1081.525,1532.265,956.419,1504.823z"/>
			
				<linearGradient id="SVGID_00000063597215396313466010000016745549076106322600_" gradientUnits="userSpaceOnUse" x1="2497.8152" y1="24.0959" x2="343.8209" y2="2039.3451">
				<stop  offset="0" style="stop-color:#86A1C3"/>
				<stop  offset="0.9964" style="stop-color:#415B7E"/>
			</linearGradient>
			<path style="fill:url(#SVGID_00000063597215396313466010000016745549076106322600_);" d="M1362.721,1205.65
				c33.932-12.11,53.218-51.183,43.078-87.273c-10.141-36.09-45.87-55.531-79.802-43.421c-1.774,0.633-3.482,1.383-5.174,2.158
				c-8.293-17.038-17.822-33.309-28.504-48.68c1.355-1.349,2.694-2.729,3.965-4.22c24.315-28.531,48.028-88.378,19.831-110.804
				c-53.517-42.562-88.759-8.984-113.075,19.546c-1.245,1.463-2.38,2.986-3.492,4.522c-15.105-9.929-31.098-18.613-47.875-25.975
				c0.563-1.859,1.1-3.734,1.524-5.667c4.454-20.306,0.125-40.295-10.255-55.551c-15.595,57.969-30.749,116.049-45.324,174.274
				c104.955,41.739,166.074,161.801,139.123,284.673c-22.839,104.122-102.287,179.876-194.63,196.928
				c-1.323,11.537-2.557,23.114-4.193,34.625c-4.438,31.238-10.625,62.311-16.839,93.351c8.819-0.596,17.586-1.539,26.285-2.851
				c0.366,1.863,0.759,3.721,1.278,5.57c10.141,36.09,40.165,61.198,102.251,41.524c34.345-10.884,30.769-49.286,20.627-85.376
				c-0.53-1.885-1.169-3.699-1.835-5.491c16.135-9.489,31.599-20.279,46.262-32.28c1.212,1.413,2.451,2.808,3.796,4.124
				c25.748,25.201,91.478,21.691,115.793-6.842c24.316-28.533-1.99-71.28-27.738-96.482c-1.319-1.291-2.701-2.46-4.093-3.606
				c9.746-16.575,18.362-34.066,25.773-52.351c1.713,0.542,3.44,1.058,5.226,1.448c34.456,7.56,69.024-16.561,77.208-53.87
				c8.183-37.308-13.115-73.682-47.572-81.239c-1.786-0.391-3.57-0.647-5.352-0.871c0.924-19.709,0.418-39.201-1.494-58.333
				C1359.239,1206.754,1360.983,1206.27,1362.721,1205.65z"/>
			
				<linearGradient id="SVGID_00000088835745118187762670000002575218773842208158_" gradientUnits="userSpaceOnUse" x1="419.3755" y1="747.4471" x2="2610.0718" y2="2526.946">
				<stop  offset="0" style="stop-color:#95AFC7"/>
				<stop  offset="1" style="stop-color:#7595B6"/>
			</linearGradient>
			<path style="fill:url(#SVGID_00000088835745118187762670000002575218773842208158_);" d="M1368.417,1396.754
				c34.456,7.559,69.023-16.56,77.207-53.869c8.184-37.31-13.115-73.682-47.572-81.24c-1.785-0.392-3.569-0.647-5.351-0.871
				c0.924-19.71,0.418-39.201-1.494-58.334c1.744-0.458,3.488-0.941,5.226-1.562c33.932-12.109,53.219-51.181,43.078-87.272
				c-10.141-36.091-45.869-55.531-79.801-43.422c-1.774,0.634-3.482,1.383-5.174,2.159c-8.294-17.037-17.822-33.31-28.505-48.68
				c1.355-1.349,2.695-2.728,3.965-4.219c24.315-28.531,23.154-72.09-2.594-97.289c-25.748-25.201-66.334-22.499-90.649,6.032
				c-1.245,1.463-2.379,2.986-3.492,4.523c-15.105-9.93-31.099-18.614-47.876-25.975c0.562-1.86,1.1-3.735,1.524-5.668
				c8.184-37.309-13.115-73.682-47.572-81.239c-34.457-7.558-69.023,16.56-77.207,53.869c-0.424,1.933-0.721,3.861-0.989,5.785
				c-18.317-0.337-36.477,0.856-54.351,3.552c-0.367-1.861-0.759-3.72-1.278-5.569c-10.141-36.089-45.87-55.53-79.802-43.421
				c-33.932,12.109-53.218,51.183-43.078,87.272c0.53,1.887,1.169,3.699,1.835,5.491c-16.135,9.489-31.6,20.279-46.263,32.281
				c-1.211-1.412-2.45-2.807-3.796-4.126c-25.748-25.2-66.333-22.498-90.649,6.034c-24.316,28.533-23.154,72.09,2.594,97.29
				c1.319,1.291,2.701,2.46,4.093,3.606c-9.745,16.576-18.362,34.066-25.773,52.352c-1.712-0.542-3.44-1.056-5.225-1.448
				c-34.457-7.559-69.024,16.56-77.208,53.869c-8.183,37.31,13.115,73.682,47.572,81.24c1.785,0.392,3.569,0.647,5.351,0.871
				c-0.923,19.709-0.418,39.2,1.494,58.333c-1.744,0.458-3.487,0.942-5.225,1.561c-33.933,12.111-53.219,51.183-43.078,87.274
				c10.141,36.09,45.87,55.529,79.802,43.42c1.773-0.632,3.483-1.381,5.174-2.157c8.293,17.038,17.822,33.31,28.504,48.681
				c-1.355,1.349-2.695,2.728-3.965,4.219c-24.315,28.531-23.154,72.089,2.595,97.289c25.748,25.201,66.334,22.499,90.649-6.032
				c1.246-1.463,2.38-2.986,3.492-4.523c15.104,9.93,31.099,18.614,47.875,25.975c-0.562,1.86-1.099,3.735-1.524,5.668
				c-8.183,37.309,13.115,73.682,47.572,81.239c34.457,7.558,69.024-16.56,77.207-53.87c0.425-1.932,0.722-3.861,0.99-5.785
				c18.317,0.337,36.477-0.856,54.351-3.552c0.367,1.861,0.759,3.72,1.278,5.569c10.142,36.089,45.87,55.529,79.802,43.42
				c33.933-12.109,53.219-51.183,43.078-87.271c-0.53-1.887-1.169-3.699-1.835-5.492c16.135-9.488,31.599-20.278,46.262-32.279
				c1.211,1.412,2.45,2.807,3.796,4.124c25.749,25.201,66.333,22.501,90.649-6.032c24.316-28.533,23.155-72.091-2.594-97.292
				c-1.319-1.289-2.7-2.458-4.093-3.604c9.745-16.576,18.362-34.066,25.773-52.352
				C1364.905,1395.847,1366.632,1396.362,1368.417,1396.754z M990.132,1500.05c-125.104-27.441-202.434-159.5-172.72-294.963
				c29.713-135.463,155.218-223.03,280.322-195.589c125.104,27.441,202.434,159.5,172.72,294.963
				C1240.741,1439.924,1115.237,1527.491,990.132,1500.05z"/>
		</g>
		<g>
			
				<linearGradient id="SVGID_00000053536041009823940770000006326017847211663028_" gradientUnits="userSpaceOnUse" x1="2885.9756" y1="438.9779" x2="731.9852" y2="2454.2234">
				<stop  offset="0" style="stop-color:#86A1C3"/>
				<stop  offset="0.9964" style="stop-color:#415B7E"/>
			</linearGradient>
			<path style="fill:url(#SVGID_00000053536041009823940770000006326017847211663028_);" d="M1552.411,1971.206
				c18.67,9.479,42.125,0.775,52.39-19.44c10.263-20.216,3.449-44.288-15.22-53.767c-0.968-0.491-1.955-0.904-2.945-1.299
				c3.468-11.185,6.083-22.459,7.838-33.737c1.07-0.003,2.144-0.021,3.235-0.118c21.3-1.899,38.205-21.472,37.76-43.719
				c-0.446-22.247-18.075-38.743-39.375-36.844c-1.114,0.1-2.207,0.275-3.295,0.469c-2.225-11.024-5.273-21.795-9.119-32.218
				c0.979-0.573,1.954-1.166,2.906-1.832c18.224-12.767,24.05-37.966,13.014-56.284c-11.037-18.317-34.757-22.815-52.98-10.047
				c-0.934,0.654-1.812,1.361-2.681,2.078c-7.198-7.957-15.092-15.331-23.633-22.061c0.6-0.985,1.188-1.982,1.72-3.029
				c10.265-20.215,23.676-42.299,4.86-51.484c-43.526-21.249-62.206-3.059-72.469,17.157c-0.531,1.048-0.99,2.11-1.43,3.176
				c-10.474-2.924-21.085-4.946-31.756-6.062c0.067-1.124,0.118-2.25,0.095-3.39c-0.446-22.246,6.155-34.286-15.226-34.701
				c-46.624-0.907-62.355,19.331-61.909,41.577c0.024,1.163,0.121,2.299,0.236,3.428c-10.684,3.046-21.178,6.94-31.392,11.649
				c-0.485-0.992-0.989-1.978-1.566-2.936c-11.036-18.317-34.756-22.816-52.98-10.047c-18.224,12.768-24.05,37.966-13.013,56.284
				c0.565,0.938,1.184,1.815,1.813,2.682c-8.07,8.07-15.628,16.835-22.613,26.235c-0.903-0.566-1.819-1.12-2.786-1.61
				c-18.67-9.48-42.125-0.775-52.389,19.44c-10.264,20.215-3.45,44.287,15.22,53.767c0.968,0.49,1.955,0.904,2.945,1.298
				c-3.469,11.186-6.084,22.459-7.838,33.738c-1.069,0.003-2.144,0.02-3.234,0.117c-21.301,1.9-38.206,21.473-37.761,43.719
				c0.446,22.247,18.076,38.742,39.376,36.844c1.113-0.099,2.207-0.274,3.294-0.469c2.225,11.025,5.273,21.795,9.119,32.218
				c-0.979,0.573-1.954,1.166-2.907,1.833c-18.223,12.767-24.05,37.966-13.014,56.283c11.037,18.318,47.576,26.827,65.799,14.06
				c0.933-0.654-11.005-5.372-10.138-6.089c7.198,7.957,15.092,15.331,23.633,22.06c-0.6,0.985-1.188,1.983-1.72,3.029
				c-10.264,20.215-3.449,44.288,15.22,53.767c18.67,9.479,42.125,0.775,52.389-19.44c0.531-1.047,0.989-2.11,1.43-3.176
				c10.474,2.925,21.085,4.947,31.756,6.063c-0.067,1.124-0.118,2.249-0.095,3.39c0.446,22.246,18.075,38.741,39.376,36.843
				c21.3-1.899,38.205-21.473,37.76-43.719c-0.024-1.163-0.121-2.3-0.236-3.428c10.685-3.046,21.178-6.94,31.392-11.65
				c0.485,0.992,0.989,1.979,1.566,2.936c11.037,18.317,34.756,22.815,52.98,10.047c18.224-12.768,24.05-37.966,13.014-56.284
				c-0.566-0.937-1.185-1.815-1.814-2.681c8.07-8.071,15.628-16.835,22.613-26.236
				C1550.528,1970.161,1551.444,1970.714,1552.411,1971.206z M1319.675,1974.159c-67.786-34.417-92.527-121.817-55.262-195.215
				c37.266-73.399,122.427-104.998,190.213-70.582c67.786,34.416,92.527,121.817,55.262,195.215
				C1472.621,1976.974,1387.46,2008.575,1319.675,1974.159z"/>
			
				<linearGradient id="SVGID_00000101084203398867655510000002697623270218167743_" gradientUnits="userSpaceOnUse" x1="2951.8899" y1="509.43" x2="797.8987" y2="2524.6763">
				<stop  offset="0" style="stop-color:#86A1C3"/>
				<stop  offset="0.9964" style="stop-color:#415B7E"/>
			</linearGradient>
			<path style="fill:url(#SVGID_00000101084203398867655510000002697623270218167743_);" d="M1597.708,1862.845
				c21.3-1.899,38.205-21.473,37.76-43.719c-0.446-22.247-18.075-38.743-39.376-36.844c-1.113,0.099-2.206,0.275-3.293,0.469
				c-2.226-11.025-5.274-21.795-9.12-32.218c0.979-0.572,1.954-1.166,2.906-1.833c18.224-12.766,40.769-43.617,27.912-60.704
				c-24.402-32.431-49.655-18.394-67.879-5.627c-0.934,0.654-1.812,1.36-2.681,2.077c-7.198-7.957-15.092-15.33-23.633-22.06
				c0.6-0.985,1.188-1.982,1.72-3.029c5.587-11.002,6.079-23.133,2.39-33.445c-17.601,30.981-34.967,62.09-52.02,93.37
				c54.078,39.626,71.295,117.718,37.492,184.295c-28.644,56.417-85.583,88.096-141.179,84.127
				c-2.48,6.431-4.915,12.898-7.571,19.268c-7.207,17.285-15.394,34.215-23.592,51.123c5.156,0.972,10.334,1.737,15.527,2.281
				c-0.068,1.125-0.119,2.25-0.096,3.39c0.446,22.247,13.953,41.148,52.556,39.101c21.355-1.132,25.025-23.73,24.579-45.977
				c-0.024-1.162-0.121-2.299-0.236-3.428c10.685-3.046,21.178-6.94,31.392-11.649c0.485,0.992,0.99,1.979,1.566,2.935
				c11.037,18.319,49.323,26.1,67.547,13.332c18.224-12.768,9.483-41.25-1.553-59.568c-0.566-0.938-1.185-1.815-1.814-2.682
				c8.07-8.07,15.629-16.835,22.613-26.235c0.903,0.568,1.818,1.121,2.786,1.61c18.67,9.481,42.125,0.776,52.39-19.44
				c10.263-20.215,3.449-44.287-15.22-53.766c-0.968-0.491-1.954-0.904-2.945-1.299c3.468-11.185,6.083-22.459,7.838-33.736
				C1595.543,1862.96,1596.617,1862.942,1597.708,1862.845z"/>
			
				<linearGradient id="SVGID_00000086659297618173534980000002598420463829092235_" gradientUnits="userSpaceOnUse" x1="1076.995" y1="1703.4436" x2="1544.9109" y2="1901.9532">
				<stop  offset="0" style="stop-color:#95AFC7"/>
				<stop  offset="1" style="stop-color:#7595B6"/>
			</linearGradient>
			<path style="fill:url(#SVGID_00000086659297618173534980000002598420463829092235_);" d="M1572.491,1973.49
				c18.67,9.479,42.125,0.775,52.39-19.44c10.263-20.215,3.449-44.288-15.22-53.767c-0.968-0.491-1.954-0.904-2.945-1.299
				c3.469-11.186,6.084-22.459,7.838-33.737c1.07-0.003,2.144-0.021,3.235-0.119c21.3-1.898,38.205-21.472,37.76-43.719
				c-0.446-22.247-18.075-38.743-39.375-36.844c-1.114,0.1-2.208,0.275-3.295,0.469c-2.225-11.025-5.273-21.795-9.119-32.218
				c0.979-0.573,1.954-1.166,2.907-1.833c18.223-12.766,24.049-37.966,13.014-56.283c-11.037-18.317-34.757-22.815-52.98-10.048
				c-0.934,0.655-1.812,1.361-2.681,2.078c-7.198-7.957-15.092-15.33-23.634-22.06c0.6-0.985,1.189-1.982,1.72-3.029
				c10.264-20.215,3.449-44.288-15.22-53.767c-18.669-9.479-42.124-0.775-52.389,19.44c-0.531,1.047-0.989,2.11-1.43,3.176
				c-10.473-2.925-21.085-4.947-31.756-6.062c0.067-1.124,0.118-2.25,0.096-3.391c-0.447-22.246-18.076-38.741-39.376-36.844
				c-21.301,1.899-38.206,21.473-37.761,43.72c0.024,1.162,0.121,2.299,0.236,3.428c-10.684,3.046-21.178,6.94-31.392,11.649
				c-0.485-0.992-0.989-1.978-1.565-2.936c-11.037-18.318-34.757-22.815-52.981-10.047c-18.224,12.768-24.05,37.966-13.013,56.283
				c0.565,0.939,1.184,1.816,1.813,2.682c-8.07,8.071-15.628,16.835-22.613,26.236c-0.903-0.567-1.818-1.12-2.786-1.611
				c-18.67-9.479-42.125-0.775-52.389,19.44c-10.264,20.216-3.45,44.288,15.219,53.767c0.968,0.491,1.955,0.904,2.945,1.299
				c-3.468,11.186-6.084,22.459-7.837,33.737c-1.071,0.004-2.145,0.021-3.235,0.118c-21.301,1.899-38.206,21.473-37.76,43.719
				c0.446,22.247,18.076,38.742,39.376,36.843c1.113-0.099,2.207-0.273,3.294-0.468c2.225,11.025,5.273,21.794,9.12,32.218
				c-0.98,0.573-1.955,1.166-2.907,1.833c-18.223,12.766-24.05,37.966-13.013,56.283c11.036,18.317,34.756,22.815,52.98,10.048
				c0.933-0.655,1.812-1.361,2.68-2.078c7.198,7.957,15.093,15.33,23.633,22.06c-0.6,0.985-1.188,1.982-1.72,3.029
				c-10.264,20.216-3.449,44.288,15.22,53.767c18.67,9.479,42.125,0.775,52.389-19.44c0.531-1.046,0.99-2.11,1.43-3.176
				c10.474,2.925,21.085,4.947,31.756,6.062c-0.067,1.125-0.118,2.25-0.095,3.39c0.446,22.246,18.075,38.741,39.376,36.844
				c21.3-1.899,38.206-21.473,37.76-43.719c-0.024-1.163-0.121-2.3-0.236-3.429c10.685-3.046,21.178-6.94,31.392-11.649
				c0.485,0.992,0.99,1.978,1.566,2.935c11.037,18.318,34.756,22.816,52.98,10.048c18.224-12.768,24.05-37.966,13.014-56.284
				c-0.566-0.938-1.185-1.815-1.814-2.681c8.07-8.071,15.629-16.835,22.613-26.236
				C1570.608,1972.445,1571.525,1972.998,1572.491,1973.49z M1339.755,1976.442c-67.786-34.416-92.527-121.816-55.261-195.214
				c37.265-73.398,122.427-104.999,190.212-70.582c67.786,34.416,92.527,121.816,55.262,195.214
				C1492.701,1979.258,1407.54,2010.859,1339.755,1976.442z"/>
		</g>
	</g>
</g>
</svg>
